<?xml version="1.0" encoding="utf-8"?>
<!-- Generator: Adobe Illustrator 23.0.4, SVG Export Plug-In . SVG Version: 6.00 Build 0)  -->
<svg version="1.1" id="Layer_1" xmlns="http://www.w3.org/2000/svg" xmlns:xlink="http://www.w3.org/1999/xlink" x="0px" y="0px"
	 viewBox="0 0 57.09 49.98" style="enable-background:new 0 0 57.09 49.98;" xml:space="preserve">
<style type="text/css">
	.st0{fill:#FFFFFF;}
</style>
<g>
	<path class="st0" d="M0,43.73c0-5.35,0-10.7,0-16.06c0.03-0.09,0.08-0.17,0.1-0.26c0.36-2.05,1.43-3.63,3.15-4.79
		c0.13-0.09,0.26-0.19,0.51-0.38c-0.26-0.2-0.48-0.34-0.66-0.52c-1.4-1.4-2.32-3.06-2.8-4.98c-0.11-0.45-0.2-0.9-0.29-1.35
		c0-0.74,0-1.49,0-2.23c0.04-0.12,0.09-0.24,0.1-0.37c0.68-4.97,4.81-8.84,9.82-9.2c5-0.36,9.62,2.83,11.04,7.62
		c0.17,0.56,0.27,1.15,0.42,1.79C21.2,6.38,25.98,1.17,31.9,0.17c5.53-0.93,11.16,2.13,13.47,7.41c2.21,5.05,0.93,11.79-5.01,15.61
		c1.52,1.43,2.41,3.17,2.47,5.35c0.24-0.15,0.41-0.25,0.58-0.36c3.12-2.08,6.26-4.14,9.35-6.27c0.78-0.54,1.46-0.51,2.22-0.16
		c0.92,0.43,1.56,1.12,1.9,2.08c0.06,0.17,0.13,0.34,0.2,0.5c0,7.58,0,15.16,0,22.75c-0.05,0.12-0.1,0.23-0.14,0.35
		c-0.46,1.33-1.36,2.18-2.76,2.49c-0.4,0.09-0.74,0.04-1.1-0.2c-3.25-2.19-6.51-4.36-9.77-6.53c-0.15-0.1-0.3-0.19-0.47-0.3
		c-0.02,0.13-0.03,0.19-0.04,0.24c-0.25,3.98-3.3,6.85-7.29,6.85c-9.42,0-18.83,0.01-28.25,0c-2.7,0-4.82-1.15-6.21-3.46
		C0.56,45.67,0.35,44.66,0,43.73z M33.87,21.44c4.95,0.01,8.95-3.95,8.96-8.89c0.01-4.96-3.94-8.96-8.87-8.97
		c-4.99-0.01-8.98,3.95-8.99,8.91C24.96,17.44,28.93,21.43,33.87,21.44z M10.73,7.16c-3.93-0.01-7.15,3.18-7.16,7.1
		c-0.01,3.93,3.17,7.16,7.08,7.17c3.96,0.02,7.18-3.18,7.19-7.13C17.84,10.38,14.65,7.17,10.73,7.16z M18.69,21.39
		c2.18,0,4.26,0,6.43,0c-2.07-2.12-3.28-4.58-3.68-7.44C21.48,16.76,20.52,19.2,18.69,21.39z"/>
</g>
</svg>
