<?xml version="1.0" encoding="utf-8"?>
<!-- Generator: Adobe Illustrator 23.0.4, SVG Export Plug-In . SVG Version: 6.00 Build 0)  -->
<svg version="1.1" id="Layer_1" xmlns="http://www.w3.org/2000/svg" xmlns:xlink="http://www.w3.org/1999/xlink" x="0px" y="0px"
	 viewBox="0 0 57.09 43.73" style="enable-background:new 0 0 57.09 43.73;" xml:space="preserve">
<style type="text/css">
	.st0{fill:#FFFFFF;}
</style>
<g>
	<path class="st0" d="M12.67,27.8c0,0.16,0,0.29,0,0.42c0,4.44,0,8.87,0,13.31c0,0.49-0.05,0.97-0.35,1.39
		c-0.41,0.57-0.96,0.81-1.65,0.81c-1.83,0-3.66-0.01-5.48,0c-1.29,0.01-2.14-1.03-2.13-2.15c0.04-4.46,0.01-8.92,0.01-13.37
		c0-0.12,0-0.24,0-0.41c-0.35,0-0.69,0.01-1.03,0c-0.96-0.02-1.69-0.56-1.96-1.48C0.02,26.1,0,25.86,0,25.62c0-4.9,0-9.81,0-14.71
		C0,9.6,0.81,8.79,2.13,8.79c6.86,0,13.73,0,20.59-0.01c0.2,0,0.42-0.05,0.61-0.13c6.44-2.81,12.88-5.63,19.32-8.45
		c0.22-0.1,0.46-0.17,0.69-0.2c0.63-0.07,1.1,0.34,1.16,0.97c0.02,0.2,0.03,0.41,0.03,0.61c0,11.13,0,22.26,0,33.39
		c0,0.17-0.01,0.35-0.02,0.52c-0.07,0.82-0.73,1.28-1.51,0.99c-0.71-0.27-1.4-0.59-2.1-0.89c-5.88-2.56-11.75-5.12-17.63-7.68
		c-0.15-0.07-0.33-0.1-0.5-0.1c-3.26-0.01-6.52,0-9.78,0C12.91,27.8,12.81,27.8,12.67,27.8z M9.4,23.16c0-3.2,0-6.38,0-9.55
		c-1.03,0-2.03,0-3.04,0c0,3.19,0,6.36,0,9.55C7.38,23.16,8.38,23.16,9.4,23.16z"/>
	<path class="st0" d="M53.92,16.65c0.53,0,1.05-0.01,1.58,0c0.9,0.01,1.56,0.65,1.58,1.51c0.02,0.84-0.6,1.53-1.49,1.56
		c-1.11,0.03-2.23,0.03-3.35,0c-0.89-0.03-1.51-0.71-1.49-1.56c0.02-0.86,0.68-1.5,1.58-1.51C52.87,16.65,53.39,16.65,53.92,16.65z"
		/>
	<path class="st0" d="M52.44,27.68c-0.45,0-0.8-0.13-1.08-0.41c-0.81-0.81-1.63-1.61-2.42-2.44c-0.53-0.55-0.51-1.41-0.02-2
		c0.49-0.58,1.34-0.71,1.98-0.29c0.1,0.07,0.21,0.13,0.29,0.22c0.78,0.77,1.57,1.53,2.31,2.33c0.82,0.88,0.4,2.24-0.77,2.54
		C52.63,27.67,52.51,27.67,52.44,27.68z"/>
	<path class="st0" d="M50.04,14.23c-0.57-0.04-1.06-0.3-1.33-0.86c-0.27-0.56-0.24-1.14,0.18-1.59c0.83-0.89,1.68-1.76,2.57-2.59
		c0.55-0.51,1.38-0.45,1.94,0.05c0.58,0.51,0.69,1.34,0.28,1.99c-0.08,0.13-0.18,0.24-0.29,0.35c-0.72,0.73-1.45,1.45-2.17,2.17
		C50.9,14.06,50.53,14.22,50.04,14.23z"/>
</g>
</svg>
