<?xml version="1.0" encoding="utf-8"?>
<!-- Generator: Adobe Illustrator 23.0.4, SVG Export Plug-In . SVG Version: 6.00 Build 0)  -->
<svg version="1.1" id="Layer_1" xmlns="http://www.w3.org/2000/svg" xmlns:xlink="http://www.w3.org/1999/xlink" x="0px" y="0px"
	 viewBox="0 0 57.09 55.71" style="enable-background:new 0 0 57.09 55.71;" xml:space="preserve">
<style type="text/css">
	.st0{fill:#FFFFFF;}
</style>
<g>
	<path class="st0" d="M0,50.82c0-15.35,0-30.7,0-46.05c0.1-0.31,0.19-0.63,0.29-0.94C1.1,1.42,3.2,0,5.96,0c8.38,0,16.76,0,25.14,0
		c0.26,0,0.52,0,0.78,0.03c2.53,0.22,4.54,1.82,5.03,4.25c0.26,1.29,0.15,2.66,0.2,3.99c0,0.09-0.11,0.24-0.2,0.28
		c-1.42,0.66-1.92,1.82-1.83,3.32c0.03,0.48,0,0.96,0,1.43c-1.15-1.82-2.17-2.46-4.05-2.46c-0.82,0-1.64,0-2.45,0
		c-0.13,0-0.27-0.03-0.32-0.04c0.17-0.6,0.42-1.16,0.46-1.73c0.07-0.98,0.05-1.97,0.01-2.95c-0.06-1.65-1.28-2.87-2.92-2.91
		c-1.02-0.03-2.04-0.03-3.07,0.01c-1.55,0.06-2.76,1.28-2.81,2.84c-0.03,1.02-0.03,2.04,0,3.07c0.03,1.44,1.01,2.57,2.44,2.84
		c0.22,0.04,0.45,0.07,0.69,0.11c-0.94,1.36-1.07,1.76-1.07,3.42c0,1.69,0,3.37,0,4.96c-0.66,0-1.32-0.01-1.98,0
		c-0.69,0.01-1.38-0.02-2.06,0.06c-1.26,0.14-2.37,1.18-2.46,2.44c-0.09,1.27-0.09,2.56,0,3.84c0.09,1.23,1.18,2.35,2.41,2.41
		c1.66,0.09,3.36,0.39,4.9-0.35c-0.11,0.53-0.3,1.09-0.31,1.64c-0.04,1.62-0.04,3.23-0.01,4.85c0.04,2.07,1.47,3.62,3.53,3.73
		c1.76,0.09,3.53,0.08,5.29,0c1.72-0.08,3.04-1.25,3.42-2.86c0.08-0.34,0.1-0.69,0.14-1c0.6,0.3,1.18,0.64,1.79,0.87
		c0.33,0.13,0.46,0.26,0.45,0.62c-0.01,4.46,0.01,8.92-0.01,13.38c-0.01,3.18-2.42,5.63-5.61,5.64c-8.64,0.02-17.28,0.02-25.92,0
		c-2.47-0.01-4.52-1.52-5.29-3.81C0.18,51.53,0.1,51.17,0,50.82z M17.79,19.71c0.35,0,0.71,0.01,1.06,0
		c1.62-0.03,2.78-1.13,2.85-2.74c0.04-0.8,0.04-1.6,0-2.4c-0.07-1.55-1.15-2.64-2.69-2.72c-0.83-0.04-1.67-0.05-2.51,0
		c-1.56,0.09-2.64,1.25-2.66,2.81c-0.01,0.74-0.01,1.49,0,2.23c0.03,1.62,1.21,2.79,2.84,2.82C17.04,19.72,17.41,19.71,17.79,19.71z
		"/>
	<path class="st0" d="M35.32,27.85c0-1.23-0.01-2.45,0-3.68c0.02-1.78,1.23-3.02,3.01-3.03c2.47-0.02,4.94-0.02,7.41,0
		c1.75,0.01,2.98,1.22,3,2.98c0.03,2.49,0.03,4.98,0,7.47c-0.02,1.73-1.22,2.95-2.95,2.97c-2.51,0.03-5.02,0.03-7.52,0
		c-1.75-0.02-2.93-1.27-2.95-3.04C35.31,30.3,35.32,29.08,35.32,27.85z"/>
	<path class="st0" d="M33.46,17.48c0,0.89,0.01,1.78,0,2.67c-0.02,1.22-0.89,2.11-2.11,2.13c-1.78,0.02-3.56,0.02-5.34,0
		c-1.22-0.01-2.12-0.9-2.13-2.11c-0.02-1.78-0.02-3.56,0-5.34c0.01-1.21,0.91-2.12,2.11-2.13c1.78-0.02,3.56-0.02,5.34,0
		c1.24,0.01,2.11,0.92,2.13,2.17C33.46,15.74,33.46,16.61,33.46,17.48z"/>
	<path class="st0" d="M28.64,37.22c-0.78,0-1.56,0.01-2.34,0c-1.13-0.02-1.94-0.79-1.96-1.92c-0.03-1.61-0.03-3.23,0-4.84
		c0.02-1.1,0.82-1.88,1.93-1.89c1.6-0.02,3.19-0.03,4.79,0c1.16,0.02,1.93,0.83,1.94,2c0.01,1.56,0.01,3.12,0,4.68
		c-0.01,1.16-0.81,1.96-1.96,1.98C30.23,37.23,29.44,37.22,28.64,37.22z"/>
	<path class="st0" d="M55.97,14.49c0,0.78,0.01,1.56,0,2.34c-0.02,1.16-0.81,1.96-1.97,1.97c-1.58,0.02-3.15,0.02-4.73,0
		c-1.13-0.01-1.94-0.79-1.96-1.92c-0.03-1.6-0.03-3.19,0-4.79c0.02-1.17,0.83-1.94,1.99-1.95c1.56-0.01,3.12-0.01,4.68,0
		c1.19,0.01,1.97,0.82,1.99,2.01C55.97,12.93,55.97,13.71,55.97,14.49z"/>
	<path class="st0" d="M33.47,23.43c0,1.4,0,2.72,0,4.22c-1.16-1.06-2.46-0.95-3.74-0.94c-0.95,0.01-1.89,0.03-2.84-0.01
		c-1.01-0.03-1.96,0.1-2.71,0.67c0-1.17,0-2.37,0-3.68c1.27,0.62,2.47,0.44,3.65,0.46c0.83,0.01,1.67-0.01,2.5,0.01
		C31.46,24.18,32.54,24.15,33.47,23.43z"/>
	<path class="st0" d="M26.88,7.63c0,0.44,0.01,0.89,0,1.33c-0.02,0.74-0.45,1.16-1.19,1.17c-0.91,0.01-1.82,0.01-2.72,0
		c-0.68-0.01-1.14-0.41-1.17-1.08c-0.04-0.98-0.04-1.96,0-2.94c0.03-0.63,0.44-1.04,1.08-1.06c0.96-0.04,1.93-0.04,2.89,0
		c0.71,0.03,1.1,0.48,1.12,1.2C26.89,6.7,26.88,7.17,26.88,7.63z"/>
	<path class="st0" d="M42.04,12.68c0,0.46,0.01,0.93,0,1.39c-0.02,0.7-0.45,1.16-1.14,1.17c-0.93,0.02-1.85,0.02-2.78,0
		c-0.68-0.01-1.14-0.42-1.17-1.09c-0.04-0.96-0.04-1.93-0.01-2.89c0.02-0.67,0.47-1.1,1.15-1.12c0.94-0.02,1.89-0.03,2.84,0
		c0.67,0.02,1.09,0.48,1.11,1.15C42.05,11.75,42.04,12.22,42.04,12.68z"/>
	<path class="st0" d="M17.29,24.84c0-0.46-0.02-0.93,0-1.39c0.03-0.7,0.47-1.14,1.17-1.16c0.93-0.02,1.85-0.02,2.78,0
		c0.69,0.02,1.14,0.47,1.16,1.17c0.02,0.93,0.02,1.85,0,2.78c-0.02,0.69-0.47,1.14-1.17,1.16c-0.93,0.02-1.85,0.02-2.78,0
		c-0.69-0.02-1.13-0.47-1.16-1.17C17.27,25.77,17.29,25.3,17.29,24.84z"/>
	<path class="st0" d="M57.08,24.42c0,0.37,0.02,0.74,0,1.11c-0.03,0.53-0.35,0.87-0.88,0.89c-0.8,0.02-1.6,0.02-2.4,0
		c-0.52-0.02-0.83-0.33-0.85-0.85c-0.02-0.8-0.02-1.6,0-2.4c0.01-0.53,0.34-0.84,0.84-0.87c0.8-0.04,1.6-0.03,2.39-0.01
		c0.54,0.02,0.87,0.4,0.89,0.95C57.09,23.64,57.08,24.03,57.08,24.42z"/>
	<path class="st0" d="M46.25,8.69c-1.63,0-1.63,0-1.63-1.64c0-1.61,0-1.61,1.61-1.61c1.66,0,1.66,0,1.66,1.67
		C47.88,8.69,47.88,8.69,46.25,8.69z"/>
	<path class="st0" d="M35.36,15.65c0.55,0.46,1.11,0.93,1.76,1.48c0,0.6,0.01,1.36-0.01,2.12c0,0.11-0.12,0.27-0.22,0.32
		c-0.49,0.24-1,0.45-1.53,0.69C35.36,18.69,35.36,17.14,35.36,15.65z"/>
	<path class="st0" d="M15.71,15.75c0-0.37-0.01-0.74,0-1.11c0.02-0.56,0.34-0.92,0.89-0.93c0.78-0.02,1.56-0.02,2.34,0
		c0.52,0.02,0.88,0.37,0.89,0.89c0.02,0.78,0.02,1.56,0,2.34c-0.02,0.55-0.36,0.89-0.93,0.9c-0.76,0.02-1.52,0.02-2.28,0
		c-0.57-0.01-0.89-0.34-0.91-0.91C15.7,16.53,15.71,16.14,15.71,15.75z"/>
</g>
</svg>
