<?xml version="1.0" encoding="utf-8"?>
<!-- Generator: Adobe Illustrator 23.0.4, SVG Export Plug-In . SVG Version: 6.00 Build 0)  -->
<svg version="1.1" id="Layer_1" xmlns="http://www.w3.org/2000/svg" xmlns:xlink="http://www.w3.org/1999/xlink" x="0px" y="0px"
	 viewBox="0 0 280.08 257.54" style="enable-background:new 0 0 280.08 257.54;" xml:space="preserve">
<style type="text/css">
	.st0{fill:#FFFFFF;}
</style>
<path class="st0" d="M48.73,257.54h182.62c4.91,0,8.9-4.23,8.9-9.42V118.23h36.61c1.77,0,3.22-1.44,3.22-3.22
	c0-0.96-0.43-1.86-1.14-2.45l-53.5-44.73V9.43c0-5.2-3.99-9.43-8.9-9.43h-32.88c-4.91,0-8.9,4.23-8.9,9.43v16.05l-27.5-22.98
	C145.34,0.88,142.77,0,140.04,0c-2.74,0-5.3,0.88-7.22,2.49L1.53,112.23l-0.37,0.32C0.42,113.16,0,114.06,0,115.01
	c0,1.77,1.44,3.22,3.22,3.22h36.61v129.88C39.82,253.31,43.82,257.54,48.73,257.54z"/>
</svg>
