<?xml version="1.0" encoding="utf-8"?>
<!-- Generator: Adobe Illustrator 23.0.4, SVG Export Plug-In . SVG Version: 6.00 Build 0)  -->
<svg version="1.1" id="Layer_1" xmlns="http://www.w3.org/2000/svg" xmlns:xlink="http://www.w3.org/1999/xlink" x="0px" y="0px"
	 viewBox="0 0 57.09 43.74" style="enable-background:new 0 0 57.09 43.74;" xml:space="preserve">
<style type="text/css">
	.st0{fill:#FFFFFF;}
</style>
<g>
	<path class="st0" d="M0,15.06c0.45-1.03,1.23-1.37,2.35-1.36c5.05,0.04,10.1,0.02,15.15,0.02c1.52,0,2.18,0.65,2.18,2.17
		c0,8.56,0,17.12,0,25.68c0,1.51-0.66,2.16-2.18,2.16c-5.05,0-10.1-0.02-15.15,0.02C1.24,43.75,0.44,43.42,0,42.38
		C0,33.27,0,24.17,0,15.06z M1.56,28.72c0,3.51,0,7.02,0,10.53c0,0.86,0.03,0.89,0.87,0.89c4.94,0,9.88,0,14.82,0
		c0.82,0,0.88-0.06,0.88-0.89c0-7.02,0-14.04,0-21.06c0-0.78-0.09-0.88-0.85-0.88c-4.96,0-9.92,0-14.88,0
		c-0.77,0-0.84,0.08-0.84,0.87C1.56,21.7,1.56,25.21,1.56,28.72z M9.84,16.25c0.59,0,1.19,0.03,1.78-0.02
		c0.18-0.01,0.35-0.23,0.53-0.35c-0.17-0.11-0.33-0.31-0.5-0.31c-1.21-0.03-2.41-0.03-3.62,0c-0.17,0-0.33,0.2-0.49,0.31
		c0.17,0.12,0.34,0.33,0.52,0.35C8.65,16.28,9.25,16.25,9.84,16.25z M10.74,41.55c0.01-0.52-0.37-0.93-0.88-0.95
		c-0.51-0.02-0.93,0.36-0.96,0.87c-0.03,0.54,0.38,0.98,0.91,0.99C10.31,42.47,10.72,42.06,10.74,41.55z"/>
	<path class="st0" d="M54.97,30.14c0-0.26,0-0.45,0-0.65c0-8.75,0-17.5,0-26.25c0-0.97-0.15-1.12-1.14-1.12
		c-14.49,0-28.98,0-43.48,0c-1.02,0-1.15,0.13-1.15,1.16c0,2.42,0,4.83,0.02,7.25c0,0.5-0.14,0.7-0.66,0.69
		c-1.69-0.03-1.47,0.15-1.48-1.44c-0.01-2.21-0.01-4.42,0-6.63C7.08,1.11,8.19,0,10.21,0C24.8,0,39.38,0,53.97,0
		c1.99,0,3.12,1.12,3.12,3.1c0,10.09,0,20.18,0,30.27c0,1.94-1.15,3.09-3.07,3.09c-10.09,0-20.18,0-30.27,0
		c-1.11,0-1.54-0.43-1.55-1.55c-0.01-1.04,0-2.08,0-3.12c0-1.24,0.41-1.64,1.63-1.64c10.13,0,20.25,0,30.38,0
		C54.43,30.14,54.67,30.14,54.97,30.14z M33.34,32.75c-0.01-0.7-0.6-1.25-1.31-1.22c-0.69,0.03-1.22,0.59-1.2,1.27
		c0.02,0.68,0.57,1.22,1.25,1.22C32.79,34.02,33.35,33.46,33.34,32.75z"/>
	<path class="st0" d="M33.17,43.52c-3.4,0-6.8,0-10.2,0c-0.75,0-0.79-0.04-0.79-0.79c0-0.37,0.02-0.74,0-1.11
		c-0.03-0.48,0.19-0.67,0.66-0.67c1.37,0.01,2.75-0.01,4.12,0.01c0.53,0.01,0.76-0.18,0.71-0.71c-0.02-0.26,0-0.52,0-0.78
		c0-0.76,0.08-0.84,0.82-0.84c1.82,0,3.64,0,5.46,0c0.85,0,1.71,0.01,2.56,0c0.49-0.01,0.73,0.18,0.7,0.69
		c-0.02,0.33,0.01,0.67-0.01,1c-0.03,0.49,0.19,0.65,0.67,0.64c1.86-0.02,3.71-0.01,5.57-0.01c0.71,0,0.8,0.1,0.8,0.8
		c0,0.35-0.02,0.71,0,1.06c0.03,0.53-0.19,0.72-0.72,0.72c-2.86-0.02-5.72-0.01-8.58-0.01C34.36,43.52,33.76,43.52,33.17,43.52z"/>
</g>
</svg>
