<?xml version="1.0" encoding="utf-8"?>
<!-- Generator: Adobe Illustrator 23.0.4, SVG Export Plug-In . SVG Version: 6.00 Build 0)  -->
<svg version="1.1" id="Layer_1" xmlns="http://www.w3.org/2000/svg" xmlns:xlink="http://www.w3.org/1999/xlink" x="0px" y="0px"
	 viewBox="-381 381.59 512 512" style="enable-background:new -381 381.59 512 512;" xml:space="preserve">
<circle class="st0" cx="-125" cy="637.59" r="237.59"/>
<polygon class="st1" points="-154.68,586 -65.32,637.59 -154.68,689.18 "/>
<g class="st2">
	<g class="st3">
		<path d="M96.61,509.65C62.43,450.45,7.25,408.11-58.77,390.42c-66.02-17.69-134.98-8.61-194.17,25.56
			c-59.19,34.18-101.54,89.36-119.23,155.38c-17.69,66.02-8.61,134.98,25.56,194.17c34.17,59.19,89.36,101.53,155.38,119.22
			c22.05,5.91,44.42,8.83,66.65,8.83c44.34,0,88.1-11.63,127.53-34.39c59.19-34.17,101.54-89.36,119.23-155.38
			C139.86,637.8,130.78,568.84,96.61,509.65z M96.43,696.92C80.58,756.07,42.65,805.5-10.38,836.12
			c-53.03,30.62-114.81,38.75-173.95,22.9c-59.15-15.85-108.58-53.78-139.2-106.81c-30.62-53.03-38.75-114.81-22.9-173.95
			c15.85-59.15,53.78-108.58,106.81-139.2c35.32-20.4,74.52-30.81,114.25-30.81c19.91,0,39.96,2.62,59.7,7.91
			c59.15,15.85,108.58,53.78,139.2,106.81C104.14,576,112.28,637.78,96.43,696.92z"/>
	</g>
</g>
</svg>
