<?xml version="1.0" encoding="utf-8"?>
<!-- Generator: Adobe Illustrator 23.0.4, SVG Export Plug-In . SVG Version: 6.00 Build 0)  -->
<svg version="1.1" id="Layer_1" xmlns="http://www.w3.org/2000/svg" xmlns:xlink="http://www.w3.org/1999/xlink" x="0px" y="0px"
	 viewBox="0 0 57.09 48.03" style="enable-background:new 0 0 57.09 48.03;" xml:space="preserve">
<style type="text/css">
	.st0{fill:#FFFFFF;}
</style>
<g>
	<path class="st0" d="M0,26.92c0.09-0.43,0.17-0.87,0.27-1.3c1.11-4.76,5.3-8.19,10.19-8.29c2.51-0.05,5.01,0,7.52-0.02
		c0.46,0,0.63,0.12,0.67,0.61c0.2,2.35,1.1,4.41,2.72,6.14c0.11,0.12,0.21,0.25,0.32,0.39c-6.79,2.64-9.53,7.73-8.96,14.85
		C8.3,39.03,4.11,38.17,0,36.84C0,33.53,0,30.22,0,26.92z"/>
	<path class="st0" d="M14.78,40.35c0-1.71-0.19-3.44,0.04-5.12c0.7-5.2,4.74-8.93,10.03-9.24c2.83-0.16,5.69-0.17,8.52,0.03
		c5.62,0.42,9.71,4.84,9.85,10.49c0.07,2.8,0.01,5.61,0.03,8.41c0,0.34-0.15,0.48-0.43,0.62c-2.16,1.04-4.46,1.63-6.81,2
		c-7.12,1.12-14.06,0.2-20.89-1.92c-0.33-0.1-0.42-0.27-0.42-0.6c0.01-1.56,0.01-3.12,0.01-4.68
		C14.72,40.35,14.75,40.35,14.78,40.35z"/>
	<path class="st0" d="M36.23,24.5c2.38-3.15,2.27-2.72,3.14-7.14c0.1-0.01,0.21-0.05,0.31-0.05c2.32,0,4.64-0.04,6.96,0.01
		c5.75,0.13,10.38,4.84,10.42,10.59c0.02,2.77-0.01,5.53,0.02,8.3c0,0.38-0.14,0.55-0.46,0.71c-2.56,1.23-5.3,1.8-8.08,2.17
		c-0.92,0.12-1.85,0.15-2.77,0.26c-0.46,0.06-0.55-0.12-0.57-0.55c-0.08-1.66,0.01-3.37-0.36-4.98c-1.01-4.45-3.81-7.45-8.05-9.11
		C36.61,24.65,36.43,24.57,36.23,24.5z"/>
	<path class="st0" d="M28.94,25.38c-4.62,0-8.36-3.76-8.35-8.38c0.01-4.63,3.76-8.36,8.38-8.35c4.62,0.01,8.37,3.77,8.36,8.38
		C37.33,21.64,33.57,25.39,28.94,25.38z"/>
	<path class="st0" d="M5.9,8.39c-0.01-4.58,3.68-8.33,8.24-8.38c4.6-0.05,8.4,3.59,8.5,8.12c0.01,0.46-0.1,0.78-0.47,1.1
		c-1.77,1.51-2.87,3.43-3.34,5.71c-0.08,0.39-0.26,0.61-0.59,0.79C12.69,18.75,5.92,14.71,5.9,8.39z"/>
	<path class="st0" d="M51.28,8.38c-0.13,5.86-6.03,9.9-11.45,7.81c-0.38-0.15-0.57-0.33-0.64-0.77c-0.46-2.83-1.86-5.11-4.19-6.77
		c-0.51-0.36-0.58-0.72-0.52-1.25c0.47-3.89,3.56-6.93,7.47-7.35c3.88-0.42,7.55,1.94,8.78,5.68C51.01,6.58,51.1,7.5,51.28,8.38z"/>
</g>
</svg>
