<?xml version="1.0" encoding="utf-8"?>
<!-- Generator: Adobe Illustrator 23.0.4, SVG Export Plug-In . SVG Version: 6.00 Build 0)  -->
<svg version="1.1" id="Layer_1" xmlns="http://www.w3.org/2000/svg" xmlns:xlink="http://www.w3.org/1999/xlink" x="0px" y="0px"
	 viewBox="0 0 57.09 57.09" style="enable-background:new 0 0 57.09 57.09;" xml:space="preserve">
<style type="text/css">
	.st0{fill:#FFFFFF;}
</style>
<g>
	<path class="st0" d="M0,47.95c0.27-1,0.57-1.98,1.2-2.83c2.12-2.84,6.05-3.39,8.85-1.22c0.12,0.09,0.23,0.17,0.32,0.24
		c4.38-4.38,8.74-8.74,13.11-13.11c-2.27-3.37-2.28-6.76,0.06-10.22c-0.51-0.49-1.04-0.98-1.56-1.49c-2.03-2.02-4.05-4.04-6.07-6.07
		c-0.25-0.25-0.43-0.28-0.75-0.13c-1.8,0.85-3.94,0.25-5.09-1.39c-1.15-1.65-0.94-3.9,0.48-5.31C12,4.99,14.25,4.8,15.89,5.95
		c1.63,1.15,2.2,3.31,1.37,5.11c-0.05,0.12-0.11,0.23-0.15,0.3c2.65,2.66,5.29,5.3,7.97,7.98c1.44-1.08,3.13-1.7,5-1.7
		c1.88,0,3.58,0.59,5.1,1.74c0.14-0.14,0.28-0.26,0.41-0.39c3.13-3.13,6.25-6.26,9.39-9.37c0.3-0.3,0.39-0.51,0.2-0.93
		c-1.06-2.37-0.49-5.14,1.36-6.92c1.88-1.81,4.63-2.28,6.97-1.18c2.34,1.1,3.8,3.53,3.57,6.1c-0.21,2.42-1.45,4.21-3.65,5.2
		c-2.17,0.98-4.27,0.71-6.23-0.65c-0.17-0.12-0.32-0.24-0.45-0.34c-3.35,3.35-6.67,6.67-10.01,10.01c2.26,3.34,2.26,6.73-0.05,10.17
		c0.94,0.93,1.89,1.87,2.83,2.82c1.58,1.58,3.16,3.15,4.73,4.74c0.25,0.26,0.44,0.33,0.8,0.17c1.85-0.85,3.99-0.22,5.12,1.45
		c1.11,1.65,0.88,3.86-0.53,5.26c-1.41,1.4-3.64,1.59-5.27,0.46c-1.67-1.17-2.26-3.3-1.39-5.13c0.11-0.24,0.18-0.4-0.05-0.63
		c-2.53-2.51-5.05-5.04-7.58-7.56c-0.04-0.04-0.09-0.06-0.17-0.12c-1.13,0.83-2.38,1.4-3.78,1.63c-0.11,0.02-0.24,0.33-0.24,0.51
		c-0.02,1.73-0.01,3.46-0.01,5.18c0,1.43,0.01,2.86-0.01,4.29c-0.01,0.41,0.08,0.6,0.53,0.71c2.81,0.69,4.8,3.36,4.67,6.22
		c-0.13,2.95-2.25,5.4-5.14,5.91c-0.1,0.02-0.2,0.07-0.31,0.1c-0.52,0-1.04,0-1.56,0c-0.78-0.28-1.61-0.46-2.32-0.86
		c-2.18-1.21-3.42-3.72-3.09-6.03c0.38-2.72,2.13-4.71,4.73-5.36c0.34-0.08,0.45-0.22,0.44-0.56c-0.02-0.85-0.01-1.71-0.01-2.56
		c0-2.34,0.01-4.68-0.01-7.02c0-0.18-0.16-0.51-0.28-0.53c-1.38-0.24-2.61-0.81-3.66-1.56c-4.46,4.47-8.9,8.9-13.35,13.35
		c0.03,0.07,0.1,0.2,0.15,0.34c1.42,3.26-0.17,7.08-3.47,8.32c-3.37,1.27-7.11-0.54-8.18-3.98c-0.1-0.33-0.19-0.67-0.28-1
		C0,49.06,0,48.5,0,47.95z"/>
</g>
</svg>
