<?xml version="1.0" encoding="utf-8"?>
<!-- Generator: Adobe Illustrator 23.0.4, SVG Export Plug-In . SVG Version: 6.00 Build 0)  -->
<svg version="1.1" id="圖層_2" xmlns="http://www.w3.org/2000/svg" xmlns:xlink="http://www.w3.org/1999/xlink" x="0px" y="0px"
	 viewBox="615 -184.19 1231.27 369.19" style="enable-background:new 615 -184.19 1231.27 369.19;" xml:space="preserve">
<style type="text/css">
	.st0{fill:#fff;}
</style>
<g>
	<path class="st0" d="M1098.43-89.72h-47.33v-17.67h-12.62v17.67h-43.97v12.75h103.92V-89.72z M1061.17,6.55l24.39-68.6h-13.26
		l-24.39,68.6h-1.76l-24.63-68.6h-13.27l24.63,68.6H988.8V19.3h115.57V6.55H1061.17z"/>
	<path class="st0" d="M1354.79-11.45c11-23.18,12.38-45.65,12.2-57.22h5.61v-12.62h-33.04l14.11-26.51h-13.98l-15.58,29.32
		c-0.86,1.63-1.54,4.47-0.2,6.53c1.28,1.97,3,3.28,4.84,3.28h3.51c0.04,7.05,0.53,18.31,2.67,31.16c1.5,9.04,3.61,17.47,6.28,25.22
		c-5.53,10.66-13.32,21.3-24.31,30.68l8.93,7.98c8.89-7.58,15.88-15.84,21.39-24.27c5.07,10.18,11.32,18.75,18.67,25.41l9.17-7.77
		C1365.73,11.3,1359.27,0.19,1354.79-11.45z M1348.94-31.37c-3.28-15.22-3.97-29.25-4.04-37.3h9.42
		C1354.39-60.82,1353.67-46.95,1348.94-31.37z M1305.76,0.82c1.9-1.51,3.32-3.49,4.19-5.73h12.62v-12.62h-13.65
		c-0.83-1.37-1.88-2.59-3.16-3.6l-7.79-6.19c-0.8-0.63-1.67-1.12-2.56-1.53v-2.67h19.41c2.9,0,5.25-2.35,5.25-5.25v-8.86
		c0-7.58-6.17-13.75-13.75-13.75h-10.9v-3.72h13.04c2.9,0,5.25-2.35,5.25-5.25v-10.66h6.6v-10.15h-6.6v-1.97
		c0-7.58-6.17-13.75-13.75-13.75h-4.54v-6.89h-11.43v6.89h-11.86c-2.9,0-5.25,2.35-5.25,5.25v10.47h-7.79V-79h7.79v2.18
		c0,7.57,6.16,13.73,13.73,13.73h3.37v3.72h-18.49c-2.9,0-5.25,2.35-5.25,5.25v8.87c0,7.58,6.16,13.74,13.74,13.74h10v3.11
		c-0.57,0.32-1.12,0.68-1.65,1.09l-7.79,6.19c-1.28,1.01-2.33,2.24-3.16,3.6h-15.03V-4.9h14c0.87,2.24,2.29,4.22,4.19,5.73l4.9,3.89
		l-13.86,11.01l8.65,10.34l15.92-12.64l15.92,12.64l8.65-10.34l-13.85-11L1305.76,0.82z M1295.41-96h5.39c1.8,0,3.26,1.46,3.26,3.26
		v3.58h-8.65V-96z M1295.41-79.01h8.65v7.03h-8.65V-79.01z M1295.41-50.07h10.9c1.8,0,3.26,1.46,3.26,3.26v5.98h-14.16
		L1295.41-50.07L1295.41-50.07z M1276.52-96h7.46v6.84h-7.46V-96z M1279.76-71.98c-1.79,0-3.24-1.45-3.24-3.24v-3.79h7.46v7.03
		H1279.76z M1273.98-40.83c-1.79,0-3.25-1.46-3.25-3.25v-5.99h13.25v9.24H1273.98z M1299.24-7.4l-7.79,6.19
		c-0.81,0.64-1.78,0.64-2.59,0l-7.79-6.19c-0.77-0.61-1.22-1.62-1.22-2.76s0.44-2.14,1.22-2.76l7.79-6.19
		c0.81-0.64,1.78-0.64,2.59,0l7.79,6.19c0.77,0.61,1.22,1.62,1.22,2.76C1300.45-9.01,1300.01-8.01,1299.24-7.4z"/>
	<path class="st0" d="M1692.52-19.48l-7.23,19.15l0.16-32.91h15.73v-11.82h-15.68l0.07-14.48h10.85v-12.02h-34.41v12.02h11.01
		l0.07,14.48h-15.84v11.82h15.89l0.16,33.79l-7.24-20.03h-11.37l12.72,26.96h-11.6V19.3h46.96V7.48h-11.6l12.72-26.96L1692.52-19.48
		L1692.52-19.48z M1679.21-105.27c-3.54,0-6.85,1.47-9.32,4.15l-20.7,24.99h16.4l13.61-17.21l13.61,17.21h16.4l-20.7-24.98
		C1686.06-103.8,1682.75-105.27,1679.21-105.27z M1770.26-60.14c0-7.58-5.84-13.74-13.01-13.74h-6.83l21.54-27.17h-14.91
		l-9.48,15.92v-23.46h-12.62v23.45l-9.48-15.92h-14.91l21.54,27.17h-16.2c-2.9,0-5.25,2.35-5.25,5.25v90.5h12.4v-30.9h34.79V7.33
		c0,0.15-0.21,0.22-0.2,0.37c0,0.02,0.07-0.05-1.05,1.06c-1.07,1.06-3.21,1.17-4.82,1.08c-8.24-0.5-10.59-1.46-11.22-1.83
		l-5.02,11.29c0.99,0.54,5.2,2.37,17.73,3.13c6.9,0.43,10.88-2.08,13-4.25c4.03-4.13,4.05-9.57,3.98-11v-67.32H1770.26z
		 M1757.86-21.33h-34.79V-35.5h34.79V-21.33z M1757.86-47.8h-34.79v-13.89h32.27c1.37,0,2.52,1.49,2.52,3.25V-47.8z M1740.34,7.86
		c0.01,0,0.06,0.06,0.22,0.16l0.02-0.04C1740.58,7.98,1740.51,7.93,1740.34,7.86z"/>
	<path class="st0" d="M1429.47-71.47h71.75v-12.62h-30.63v-22.13h-12.62v22.13h-28.5V-71.47z M1479.99,5.5l20.11-68.6h-13.06
		l-19.59,66.82c-0.22,0.75-0.48,1.32-0.74,1.78h-2.75c-0.26-0.46-0.52-1.03-0.74-1.78l-19.51-66.82h-13.05l20.03,68.6h-24.18v12.62
		h77.66V5.5H1479.99z M1421.77-107.46l-33.97,46.29v17.77l17.64-23.01v87.9h12.62V-82.87l18.85-24.6h-15.14V-107.46z"/>
	<path class="st0" d="M1566.65-69.95v12.62h41.49V6.63c0,0.02-0.1,1.74-1.21,2.64c-1.26,1.03-3.99,1.19-7.49,0.42
		c-12.62-2.79-15.07-3.83-15.17-3.87c0.02,0.01-0.23,0.04-0.65,0.56l-5.14,10.23c0.9,0.76,2.13,1.8,18.7,5.46
		c2.23,0.49,4.32,0.74,6.25,0.74c4.08,0,8.62-2.05,11.29-4.24c5.03-4.12,6.05-11.45,6.03-12.03v-63.86h15.7v-12.62h-69.8V-69.95z
		 M1630.16-99.05h-56.66v12.62h56.66V-99.05z M1516.92-28.83l20.19-19.28V21.5h12.62v-81.66l11.94-11.41v-16.61l-44.75,42.73V-28.83
		z M1551.48-108.22l-32.44,28.87v16.66l48.79-45.53H1551.48z"/>
	<path class="st0" d="M1194.33-68.67V-85c0-1.47,0.79-2.76,1.89-3.13l43.54-6.95v-12.77l-47.74,7.31c-0.14,0.02-0.28,0.05-0.42,0.09
		c-5.82,1.52-9.88,7-9.88,13.33v50.01c0,0.08,0,0.17,0.01,0.25c0.43,9.13-0.45,34.95-9.58,44.73c-1.9,2.03-3.95,3.15-6.38,3.48V24
		c5.41-0.37,12.26-4.78,16.17-8.96c6.03-6.46,9.94-17.34,11.62-32.35c1.13-10.16,0.84-18.7,0.79-19.9v-18.83h19.13v81.02h12.62
		v-81.02h17.53v-12.62L1194.33-68.67L1194.33-68.67z M1150.93-35.97c0.4-3.85,0.5-6.4,0.49-6.97v-6.33l21.42-36.65h-14.28
		l-7.14,17.05v-39.95h-12.62v37.7l-7.39-14.8h-14.28l21.67,33.48v9.57c0,0.05,0,0.1,0,0.15c0.01,0.36-1.45,39.54-21.42,59.02h15.95
		c8.03-10.99,12.55-24.89,15.06-36.47c3.27,4.29,6.83,9.59,8.75,14.5l11.9-3.82C1164.18-21.9,1151.56-35.3,1150.93-35.97z"/>
</g>
<g>
	<rect x="1035.35" y="62.91" class="st0" width="9.77" height="48.86"/>
	<polygon class="st0" points="1086.17,111.78 1074.08,87.6 1085.19,62.91 1075.42,62.91 1068.94,77.32 1061.73,62.91 1052.45,62.91 
		1064.54,87.09 1053.43,111.78 1063.2,111.78 1069.68,97.38 1076.88,111.78 	"/>
	<rect x="1093.5" y="62.91" class="st0" width="9.77" height="48.86"/>
	<rect x="1198.56" y="62.91" class="st0" width="9.77" height="48.86"/>
	<path class="st0" d="M1171.69,62.91h-9.78v48.87h9.78c10.78,0,19.54,0,19.54-10.1V73.5C1191.23,62.91,1182.46,62.91,1171.69,62.91z
		 M1182.57,99.78c0,5.26-3,4.6-10.88,4.6h-0.01V70.31h0.01c7.89,0,10.88-0.66,10.88,4.6V99.78z"/>
	<rect x="1251.86" y="62.91" class="st0" width="9.77" height="48.86"/>
	<polygon class="st0" points="1008.47,102 1008.47,62.91 998.7,62.91 998.7,111.78 1028.02,111.78 1028.02,102 	"/>
	<polygon class="st0" points="1373.95,102 1351.97,102 1351.97,62.91 1342.19,62.91 1342.19,111.78 1351.97,111.78 1351.97,111.78 
		1373.95,111.78 	"/>
	<path class="st0" d="M1325.58,111.78h9.28l-10.56-48.86H1310l-9.28,48.86h9.77l1.72-9.05h11.41L1325.58,111.78z M1314.07,92.95
		l3.48-18.32l3.96,18.32H1314.07z"/>
	<polygon class="st0" points="1298.28,62.91 1268.96,62.91 1268.96,72.69 1278.73,72.69 1278.73,111.78 1288.51,111.78 
		1288.51,72.69 1298.28,72.69 	"/>
	<polygon class="st0" points="1130.15,62.91 1130.15,89.79 1121.03,62.91 1110.6,62.91 1110.6,111.78 1120.37,111.78 1120.37,83.59 
		1129.94,111.78 1139.92,111.78 1139.92,62.91 	"/>
	<path class="st0" d="M1225.61,112.51L1225.61,112.51c-0.11-0.01-0.22,0-0.33,0H1225.61z M1244.53,79.32v-6.63
		c0-8.57-5.26-10.51-15.84-10.51c-3.93,0-13.03,0.77-13.03,11.5v28.09c0,10.73,8.45,10.73,14.43,10.73c8.43,0,14.43-0.97,14.43-9.75
		V85.46h-12.66v5.77h5.1v10.03c0,5.77-2.94,6.07-7.11,6.07s-4.57-0.73-4.57-6.06v-27.6c0-5.33,1.18-6.2,5.25-6.2
		c3.89,0,6.43,1.34,6.43,7.26v4.58h7.57V79.32z"/>
</g>
<g>
	<polygon class="st0" points="747.85,86.41 722.93,112.58 860.47,112.58 846.56,86.41 	"/>
	<polygon class="st0" points="880.77,-85.6 905.58,-111.77 767.01,-111.77 780.93,-85.6 	"/>
	<polygon class="st0" points="798.56,34.06 720.11,34.06 695.04,60.06 694.98,59.94 695.03,60.23 773.28,60.23 	"/>
	<path class="st0" d="M860.47,112.58l-115.4-217.06c-1.76-3.3,0.64-7.29,4.38-7.29h17.56l115.4,217.06c1.76,3.3-0.64,7.29-4.38,7.29
		H860.47z"/>
	<path class="st0" d="M932.83-60.93L826.99,49.59l12.07,22.7L942.49-35.7c1.45-1.51,1.76-3.78,0.78-5.63L932.83-60.93z"/>
	<path class="st0" d="M864.89-34.76h42.88l25.07-26.17h-42.66L864.89-34.76z M932.86-60.93h-0.03l0.04,0.08L932.86-60.93z"/>
	<path class="st0" d="M722.93,112.58L915.23-86.5c1.46-1.51,1.78-3.79,0.79-5.65l-10.44-19.63L713.25,87.34
		c-1.46,1.51-1.78,3.8-0.79,5.65L722.93,112.58z"/>
	<path class="st0" d="M695.01,60.23l105.3-109.38l-13.79-25.94L685.04,34.68c-1.4,1.52-1.69,3.76-0.71,5.58L695.01,60.23z"/>
</g>
</svg>
