<?xml version="1.0" encoding="utf-8"?>
<!-- Generator: Adobe Illustrator 24.0.1, SVG Export Plug-In . SVG Version: 6.00 Build 0)  -->
<svg version="1.1" id="圖層_2_1_" xmlns="http://www.w3.org/2000/svg" xmlns:xlink="http://www.w3.org/1999/xlink" x="0px"
	 y="0px" viewBox="0 0 1231.3 369.2" style="enable-background:new 0 0 1231.3 369.2;" xml:space="preserve">

	
<g>
	<polygon points="132.7,273 107.8,299.1 245.4,299.1 231.5,273 	"/>
	<g>
		<g>
			<g>
				<rect x="107.8" y="273" width="137.6" height="26.2"/>
			</g>
		</g>
	</g>
	<polygon points="265.7,100.9 290.5,74.7 151.9,74.7 165.8,100.9 	"/>
	<g>
		<g>
			<g>
				<rect x="151.9" y="74.7" width="138.6" height="26.2"/>
			</g>
		</g>
	</g>
	<polygon points="183.5,220.6 105,220.6 79.9,246.6 79.8,246.5 79.9,246.8 158.2,246.8 	"/>
	<g>
		<g>
			<g>
				<polygon points="79.8,220.6 181.5,220.6 153.5,246.8 79.8,246.8 				"/>
			</g>
		</g>
	</g>
<path class="st0" d="M245.4,299.1L130,82c-1.8-3.3,0.6-7.3,4.4-7.3h17.6l115.5,217.2c1.8,3.3-0.6,7.3-4.4,7.3H245.4z"></path>
<path class="st0" d="M249.8,151.7h42.9l25.1-26.2h-42.7L249.8,151.7z M317.8,125.6L317.8,125.6L317.8,125.6L317.8,125.6z"></path>
	<g>
		<g>
			<g>
				<rect x="249.8" y="125.6" width="68" height="26.2"/>
			</g>
		</g>
	</g>
</g>
<g>
	<path d="M483.4,94.5h-47.3V76.8h-12.6v17.7h-44v12.8h103.9L483.4,94.5L483.4,94.5z M446.2,190.7l24.4-68.6h-13.3l-24.4,68.6h-1.8
		l-24.6-68.6h-13.3l24.6,68.6h-44.1v12.8h115.6v-12.8H446.2z"/>
	<path d="M739.8,172.7c11-23.2,12.4-45.7,12.2-57.2h5.6v-12.6h-33l14.1-26.5h-14l-15.6,29.3c-0.9,1.6-1.5,4.5-0.2,6.5
		c1.3,2,3,3.3,4.8,3.3h3.5c0,7,0.5,18.3,2.7,31.2c1.5,9,3.6,17.5,6.3,25.2c-5.5,10.7-13.3,21.3-24.3,30.7l8.9,8
		c8.9-7.6,15.9-15.8,21.4-24.3c5.1,10.2,11.3,18.8,18.7,25.4l9.2-7.8C750.7,195.5,744.3,184.4,739.8,172.7z M733.9,152.8
		c-3.3-15.2-4-29.3-4-37.3h9.4C739.4,123.4,738.7,137.2,733.9,152.8z M690.8,185c1.9-1.5,3.3-3.5,4.2-5.7h12.6v-12.6h-13.7
		c-0.8-1.4-1.9-2.6-3.2-3.6l-7.8-6.2c-0.8-0.6-1.7-1.1-2.6-1.5v-2.7h19.4c2.9,0,5.3-2.3,5.3-5.3v-8.9c0-7.6-6.2-13.8-13.8-13.8
		h-10.9v-3.7h13c2.9,0,5.3-2.3,5.3-5.3v-10.7h6.6V95h-6.6v-2c0-7.6-6.2-13.8-13.8-13.8h-4.5v-6.9H669v6.9h-11.9
		c-2.9,0-5.3,2.3-5.3,5.3V95h-7.8v10.2h7.8v2.2c0,7.6,6.2,13.7,13.7,13.7h3.4v3.7h-18.5c-2.9,0-5.3,2.3-5.3,5.3v8.9
		c0,7.6,6.2,13.7,13.7,13.7h10v3.1c-0.6,0.3-1.1,0.7-1.7,1.1l-7.8,6.2c-1.3,1-2.3,2.2-3.2,3.6h-15v12.6h14c0.9,2.2,2.3,4.2,4.2,5.7
		l4.9,3.9l-13.9,11l8.7,10.3l15.9-12.6l15.9,12.6l8.7-10.3l-13.8-11L690.8,185z M680.4,88.2h5.4c1.8,0,3.3,1.5,3.3,3.3V95h-8.7V88.2
		z M680.4,105.2h8.7v7h-8.7V105.2z M680.4,134.1h10.9c1.8,0,3.3,1.5,3.3,3.3v6h-14.2V134.1L680.4,134.1z M661.5,88.2h7.5V95h-7.5
		V88.2z M664.8,112.2c-1.8,0-3.2-1.4-3.2-3.2v-3.8h7.5v7H664.8z M659,143.4c-1.8,0-3.3-1.5-3.3-3.3v-6H669v9.2H659z M684.2,176.8
		l-7.8,6.2c-0.8,0.6-1.8,0.6-2.6,0l-7.8-6.2c-0.8-0.6-1.2-1.6-1.2-2.8s0.4-2.1,1.2-2.8l7.8-6.2c0.8-0.6,1.8-0.6,2.6,0l7.8,6.2
		c0.8,0.6,1.2,1.6,1.2,2.8C685.4,175.2,685,176.2,684.2,176.8z"/>
	<path d="M1077.5,164.7l-7.2,19.1l0.2-32.9h15.7v-11.8h-15.7l0.1-14.5h10.8v-12H1047v12h11l0.1,14.5h-15.8V151h15.9l0.2,33.8
		l-7.2-20h-11.4l12.7,27h-11.6v11.8h47v-11.8h-11.6l12.7-27H1077.5L1077.5,164.7z M1064.2,78.9c-3.5,0-6.8,1.5-9.3,4.2l-20.7,25
		h16.4l13.6-17.2l13.6,17.2h16.4l-20.7-25C1071.1,80.4,1067.8,78.9,1064.2,78.9z M1155.3,124.1c0-7.6-5.8-13.7-13-13.7h-6.8
		l21.5-27.2h-14.9l-9.5,15.9V75.6H1120v23.4l-9.5-15.9h-14.9l21.5,27.2h-16.2c-2.9,0-5.3,2.3-5.3,5.3v90.5h12.4v-30.9h34.8v16.4
		c0,0.1-0.2,0.2-0.2,0.4c0,0,0.1-0.1-1.1,1.1c-1.1,1.1-3.2,1.2-4.8,1.1c-8.2-0.5-10.6-1.5-11.2-1.8l-5,11.3c1,0.5,5.2,2.4,17.7,3.1
		c6.9,0.4,10.9-2.1,13-4.3c4-4.1,4.1-9.6,4-11L1155.3,124.1L1155.3,124.1z M1142.9,162.9h-34.8v-14.2h34.8V162.9z M1142.9,136.4
		h-34.8v-13.9h32.3c1.4,0,2.5,1.5,2.5,3.3V136.4z M1125.3,192.1c0,0,0.1,0.1,0.2,0.2l0,0C1125.6,192.2,1125.5,192.1,1125.3,192.1z"
		/>
	<path d="M814.5,112.7h71.8v-12.6h-30.6V78H843v22.1h-28.5V112.7z M865,189.7l20.1-68.6H872l-19.6,66.8c-0.2,0.8-0.5,1.3-0.7,1.8
		H849c-0.3-0.5-0.5-1-0.7-1.8l-19.5-66.8h-13.1l20,68.6h-24.2v12.6h77.7v-12.6H865z M806.8,76.7l-34,46.3v17.8l17.6-23v87.9h12.6
		V101.3l18.8-24.6L806.8,76.7L806.8,76.7z"/>
	<path d="M951.7,114.2v12.6h41.5v64c0,0-0.1,1.7-1.2,2.6c-1.3,1-4,1.2-7.5,0.4c-12.6-2.8-15.1-3.8-15.2-3.9c0,0-0.2,0-0.7,0.6
		l-5.1,10.2c0.9,0.8,2.1,1.8,18.7,5.5c2.2,0.5,4.3,0.7,6.3,0.7c4.1,0,8.6-2.1,11.3-4.2c5-4.1,6.1-11.5,6-12v-63.9h15.7v-12.6
		L951.7,114.2L951.7,114.2L951.7,114.2z M1015.2,85.1h-56.7v12.6h56.7V85.1z M901.9,155.4l20.2-19.3v69.6h12.6V124l11.9-11.4V96
		l-44.8,42.7L901.9,155.4L901.9,155.4z M936.5,76L904,104.8v16.7L952.8,76H936.5z"/>
	<path d="M579.3,115.5V99.2c0-1.5,0.8-2.8,1.9-3.1l43.5-6.9V76.3L577,83.7c-0.1,0-0.3,0.1-0.4,0.1c-5.8,1.5-9.9,7-9.9,13.3v50
		c0,0.1,0,0.2,0,0.3c0.4,9.1-0.4,34.9-9.6,44.7c-1.9,2-3.9,3.2-6.4,3.5v12.6c5.4-0.4,12.3-4.8,16.2-9c6-6.5,9.9-17.3,11.6-32.3
		c1.1-10.2,0.8-18.7,0.8-19.9v-18.8h19.1v81h12.6v-81h17.5v-12.6L579.3,115.5L579.3,115.5z M535.9,148.2c0.4-3.9,0.5-6.4,0.5-7v-6.3
		l21.4-36.7h-14.3l-7.1,17V75.4h-12.6v37.7l-7.4-14.8h-14.3l21.7,33.5v9.6c0,0.1,0,0.1,0,0.1c0,0.4-1.4,39.5-21.4,59h15.9
		c8-11,12.6-24.9,15.1-36.5c3.3,4.3,6.8,9.6,8.8,14.5l11.9-3.8C549.2,162.3,536.6,148.9,535.9,148.2z"/>
</g>
<g>
	<rect x="420.3" y="247.1" width="9.8" height="48.9"/>
	<polygon points="471.2,296 459.1,271.8 470.2,247.1 460.4,247.1 453.9,261.5 446.7,247.1 437.4,247.1 449.5,271.3 438.4,296 
		448.2,296 454.7,281.6 461.9,296 	"/>
	<rect x="478.5" y="247.1" width="9.8" height="48.9"/>
	<rect x="583.6" y="247.1" width="9.8" height="48.9"/>
	<path d="M556.7,247.1h-9.8V296h9.8c10.8,0,19.5,0,19.5-10.1v-28.2C576.2,247.1,567.5,247.1,556.7,247.1z M567.6,284
		c0,5.3-3,4.6-10.9,4.6h0v-34.1h0c7.9,0,10.9-0.7,10.9,4.6V284z"/>
	<rect x="636.9" y="247.1" width="9.8" height="48.9"/>
	<polygon points="393.5,286.2 393.5,247.1 383.7,247.1 383.7,296 413,296 413,286.2 	"/>
	<polygon points="758.9,286.2 737,286.2 737,247.1 727.2,247.1 727.2,296 737,296 737,296 758.9,296 	"/>
	<path d="M710.6,296h9.3l-10.6-48.9H695l-9.3,48.9h9.8l1.7-9.1h11.4L710.6,296z M699.1,277.1l3.5-18.3l4,18.3H699.1z"/>
	<polygon points="683.3,247.1 654,247.1 654,256.9 663.7,256.9 663.7,296 673.5,296 673.5,256.9 683.3,256.9 	"/>
	<polygon points="515.2,247.1 515.2,274 506,247.1 495.6,247.1 495.6,296 505.4,296 505.4,267.8 514.9,296 524.9,296 524.9,247.1 	
		"/>
	<path d="M610.6,296.7L610.6,296.7c-0.1,0-0.2,0-0.3,0H610.6z M629.5,263.5v-6.6c0-8.6-5.3-10.5-15.8-10.5c-3.9,0-13,0.8-13,11.5
		V286c0,10.7,8.4,10.7,14.4,10.7c8.4,0,14.4-1,14.4-9.8v-17.3h-12.7v5.8h5.1v10c0,5.8-2.9,6.1-7.1,6.1s-4.6-0.7-4.6-6.1v-27.6
		c0-5.3,1.2-6.2,5.3-6.2c3.9,0,6.4,1.3,6.4,7.3v4.6L629.5,263.5L629.5,263.5L629.5,263.5z"/>
</g>
	<path class="st8" d="M107.8,299.1L300.2,100c1.5-1.5,1.8-3.8,0.8-5.6l-10.4-19.6L98.1,273.9c-1.5,1.5-1.8,3.8-0.8,5.7L107.8,299.1z"/>
	<path class="st8" d="M79.9,246.8l105.3-109.4l-13.8-25.9L69.9,221.2c-1.4,1.5-1.7,3.8-0.7,5.6L79.9,246.8z"/>
<path class="st8" d="M317.8,125.6L211.9,236.1l12.1,22.7l103.5-108c1.4-1.5,1.8-3.8,0.8-5.6L317.8,125.6z"></path>
</svg>
